<?xml version="1.0" standalone="no"?>
<!DOCTYPE svg PUBLIC "-//W3C//DTD SVG 20010904//EN"
 "http://www.w3.org/TR/2001/REC-SVG-20010904/DTD/svg10.dtd">
<svg version="1.0" xmlns="http://www.w3.org/2000/svg"
 width="500.000000pt" height="179.000000pt" viewBox="0 0 500.000000 179.000000"
 preserveAspectRatio="xMidYMid meet">

<g transform="translate(0.000000,179.000000) scale(0.100000,-0.100000)"
fill="#000000" stroke="none">
<path d="M0 895 l0 -895 2500 0 2500 0 0 895 0 895 -2500 0 -2500 0 0 -895z
m4670 594 c0 -74 -11 -99 -42 -92 -13 3 -28 10 -35 15 -7 6 -20 4 -36 -7 -14
-8 -39 -20 -57 -25 -29 -8 -36 -7 -48 11 -19 27 -32 14 -42 -41 l-8 -41 39 6
c37 6 39 6 39 -20 0 -22 3 -26 18 -20 34 13 80 17 86 7 3 -6 -12 -45 -34 -87
-22 -42 -40 -84 -40 -93 -1 -43 -17 -47 -60 -17 l-42 29 -34 -39 c-18 -22 -34
-37 -36 -35 -2 3 -12 23 -22 45 -18 38 -19 39 -29 18 -13 -28 -33 -29 -47 -3
-16 31 -28 24 -35 -20 -5 -28 -18 -52 -42 -75 -40 -39 -41 -39 -79 -25 -33 13
-54 -2 -54 -37 0 -27 5 -27 -75 -7 -20 5 -25 2 -31 -20 -3 -15 -1 -32 6 -41 6
-8 10 -22 8 -32 -3 -16 -8 -14 -34 12 -17 17 -33 37 -36 45 -4 12 -9 13 -27 3
-28 -17 -41 -16 -41 2 0 8 -13 29 -29 46 -17 17 -32 36 -35 42 -3 8 -11 4 -22
-10 -18 -25 -44 -31 -44 -9 0 22 -29 41 -42 28 -20 -20 -38 -13 -38 12 0 14
-4 36 -10 51 -8 21 -14 24 -35 19 -18 -5 -25 -2 -25 9 0 12 33 86 48 107 2 3
10 -4 18 -15 15 -20 15 -20 30 -1 17 23 19 96 3 96 -6 0 -20 -11 -31 -25 -22
-28 -35 -25 -49 12 -11 30 -23 23 -49 -27 -25 -49 -39 -58 -57 -34 -14 18 -15
18 -37 -9 -24 -30 -40 -24 -48 18 -7 38 -39 23 -71 -34 l-30 -54 2 -266 c3
-321 13 -389 66 -439 19 -18 35 -37 35 -43 0 -5 1 -12 3 -16 3 -10 -51 -12
-84 -2 -14 3 -50 2 -80 -3 -30 -5 -65 -9 -79 -10 -14 0 -36 -9 -48 -19 -18
-14 -40 -18 -90 -17 -37 0 -70 5 -73 10 -3 5 12 28 34 51 21 23 46 55 54 71
21 40 19 139 -6 273 -32 178 -34 204 -16 298 11 63 14 110 9 166 -6 75 -8 79
-30 79 -13 0 -24 -5 -24 -12 0 -14 -30 -48 -42 -48 -4 0 -8 7 -8 15 0 21 -10
19 -54 -15 -22 -17 -47 -30 -55 -30 -13 -1 -13 -2 2 -11 21 -12 47 -61 47 -87
0 -20 -62 -82 -81 -82 -5 0 -12 7 -15 15 -10 24 -23 17 -32 -17 -9 -34 -42
-64 -84 -74 -23 -5 -28 -2 -34 20 -8 32 -27 34 -41 3 -10 -21 -17 -23 -89 -22
-44 0 -85 4 -91 8 -9 5 -13 3 -13 -8 0 -12 -7 -14 -27 -9 -16 3 -40 8 -55 11
-16 3 -44 20 -64 38 -32 30 -36 38 -30 68 3 19 15 42 26 52 11 10 17 21 15 26
-10 15 -80 -3 -102 -27 -18 -19 -23 -21 -33 -9 -13 16 -40 9 -58 -17 -18 -25
-31 -23 -42 8 -10 25 -11 25 -35 10 -34 -23 -52 -20 -68 10 -12 23 -15 24 -26
10 -34 -41 -57 -5 -36 55 18 49 15 57 -10 29 -26 -29 -51 -25 -69 11 -13 25
-13 35 -4 46 10 12 7 19 -12 34 -28 21 -46 24 -55 9 -3 -5 -15 -10 -26 -10
-14 0 -19 7 -19 26 l0 27 -27 -29 -28 -29 -3 33 c-2 24 -8 32 -23 32 -14 0
-19 7 -19 29 0 16 -6 36 -12 43 -17 17 -21 107 -6 136 l11 22 1589 0 1588 0 0
-61z m-4026 -652 l28 -19 -26 -27 c-24 -25 -25 -31 -16 -57 9 -24 8 -31 -7
-41 -15 -12 -20 -11 -33 6 -16 22 -60 41 -91 41 -16 0 -19 -7 -19 -50 0 -36
-4 -52 -15 -56 -8 -4 -49 9 -90 27 l-75 33 0 84 0 84 158 -4 c133 -2 162 -6
186 -21z m1586 -32 l0 -55 -100 0 -100 0 0 -55 0 -55 90 0 90 0 0 -60 0 -60
-90 0 -90 0 0 -47 0 -48 -36 54 c-29 43 -35 60 -30 85 15 80 14 86 -5 27 -19
-59 -19 -66 -5 -77 29 -21 18 -32 -26 -27 -97 10 -88 -10 -88 193 l0 180 195
0 195 0 0 -55z m-1498 -22 c33 -36 54 -79 64 -127 7 -43 7 -43 -51 0 -16 12
-39 24 -50 28 -15 4 -21 16 -22 43 -6 84 14 103 59 56z m481 -58 c81 -34 113
-124 64 -181 l-24 -27 -41 29 c-28 19 -42 37 -42 52 0 37 -46 49 -95 23 -31
-16 -58 -21 -117 -21 -44 0 -78 4 -78 10 0 22 68 85 115 106 60 27 164 32 218
9z m500 0 c25 -10 26 -131 1 -121 -69 27 -179 33 -179 11 0 -5 32 -21 71 -35
73 -26 124 -54 124 -69 0 -5 -21 -12 -47 -16 -27 -3 -70 -13 -98 -21 -53 -15
-90 -9 -148 27 -92 55 -89 171 5 218 38 20 55 22 148 18 58 -2 113 -8 123 -12z
m2592 5 c-11 -5 -14 -9 -7 -9 7 -1 21 4 31 11 10 6 26 8 36 4 15 -5 17 -14 11
-53 -3 -25 -6 -61 -6 -79 l0 -34 -60 2 c-93 2 -100 -8 -100 -154 l0 -118 -90
0 c-69 0 -90 3 -90 13 0 8 10 19 23 25 l22 11 -22 0 -23 1 0 190 0 190 63 0
62 -1 -48 -23 c-26 -13 -51 -27 -55 -31 -13 -13 53 8 84 26 47 28 64 25 64
-13 l0 -33 23 23 c41 41 70 62 86 61 12 0 11 -3 -4 -9z m-1825 -103 l0 -103
-62 -61 c-35 -33 -73 -66 -84 -72 -30 -15 -34 3 -34 187 l0 152 90 0 90 0 0
-103z m156 78 c-9 -14 -14 -30 -11 -35 3 -5 1 -11 -5 -15 -6 -4 -10 9 -10 34
0 35 3 41 21 41 20 0 21 -1 5 -25z m154 -50 c0 -86 2 -85 -92 -59 l-58 17 6
41 c10 61 27 76 91 76 l53 0 0 -75z m830 -73 c0 -92 4 -152 11 -159 22 -22
-40 -20 -115 4 l-76 24 0 139 0 140 90 0 90 0 0 -148z m300 29 c0 -118 0 -119
-27 -137 -16 -10 -35 -19 -43 -20 -8 -1 -39 -6 -68 -13 -66 -14 -69 -14 -54 1
8 8 12 56 12 150 l0 138 90 0 90 0 0 -119z m-3573 37 c15 -7 43 -25 61 -40 18
-15 42 -28 52 -28 18 0 20 -7 20 -74 l0 -73 40 7 c70 13 100 60 100 158 0 23
4 42 9 42 5 0 38 -13 73 -30 34 -16 71 -30 81 -30 40 0 5 -135 -51 -195 -62
-65 -132 -85 -304 -85 l-128 0 0 180 c0 107 4 180 10 180 5 0 22 -5 37 -12z
m730 -100 c68 -8 96 -15 109 -29 10 -11 14 -22 10 -26 -4 -4 -40 -10 -80 -13
-71 -5 -73 -6 -65 -28 12 -32 54 -45 126 -38 64 5 89 -6 78 -36 -3 -8 -1 -25
4 -39 7 -18 8 -10 5 34 -3 45 -1 57 11 57 11 0 15 -13 15 -54 0 -51 -2 -54
-32 -67 -21 -9 -71 -14 -133 -14 -88 0 -107 3 -150 26 -74 37 -106 89 -113
179 l-5 72 64 -6 c35 -4 105 -12 156 -18z m1676 -19 l38 -10 -3 -107 -3 -107
-87 -3 -88 -3 0 32 0 32 -23 -21 c-53 -50 -141 -65 -203 -36 -44 21 -52 34
-28 47 10 6 43 33 71 60 46 44 53 47 60 31 25 -69 111 -28 120 59 l5 44 52 -4
c28 -3 68 -9 89 -14z m1165 -100 c-3 -21 -3 -21 -27 -2 l-24 20 24 17 c21 14
24 15 27 1 2 -8 2 -24 0 -36z m-2165 14 c25 -14 -19 -101 -65 -128 -28 -17
-50 -20 -143 -19 -60 0 -122 6 -137 12 -26 11 -28 16 -28 68 l0 57 33 -7 c93
-19 151 -17 217 8 58 22 95 25 123 9z m187 -18 c14 -12 40 -32 58 -44 24 -17
32 -30 32 -52 l0 -30 -92 3 -93 3 -3 64 c-2 35 -1 70 2 77 7 19 65 7 96 -21z
m1595 -50 c97 -30 105 -31 157 -4 36 18 52 20 112 14 83 -8 116 -25 116 -61
l0 -25 -87 3 -88 3 3 33 4 32 -29 -26 c-77 -73 -198 -71 -252 4 -18 25 -28 52
-18 52 1 0 38 -11 82 -25z"/>
<path d="M4420 1280 c0 -5 5 -10 10 -10 6 0 10 5 10 10 0 6 -4 10 -10 10 -5 0
-10 -4 -10 -10z"/>
<path d="M4510 1250 c-13 -9 -13 -10 0 -10 8 0 22 5 30 10 13 9 13 10 0 10 -8
0 -22 -5 -30 -10z"/>
<path d="M2220 1139 c0 -5 5 -7 10 -4 6 3 10 8 10 11 0 2 -4 4 -10 4 -5 0 -10
-5 -10 -11z"/>
<path d="M1975 785 c-4 -31 -5 -58 -2 -61 2 -3 8 20 12 51 3 31 4 59 2 62 -3
2 -9 -21 -12 -52z"/>
</g>
</svg>
