<?xml version="1.0" encoding="UTF-8" standalone="no"?>
<svg
   xmlns:dc="http://purl.org/dc/elements/1.1/"
   xmlns:cc="http://creativecommons.org/ns#"
   xmlns:rdf="http://www.w3.org/1999/02/22-rdf-syntax-ns#"
   xmlns:svg="http://www.w3.org/2000/svg"
   xmlns="http://www.w3.org/2000/svg"
   xmlns:sodipodi="http://sodipodi.sourceforge.net/DTD/sodipodi-0.dtd"
   xmlns:inkscape="http://www.inkscape.org/namespaces/inkscape"
   version="1.0"
   width="603.000000pt"
   height="300.000000pt"
   viewBox="0 0 603.000000 300.000000"
   preserveAspectRatio="xMidYMid meet"
   id="svg44"
   sodipodi:docname="logo-uco.svg"
   inkscape:version="1.0.2 (e86c870879, 2021-01-15)">
  <metadata
     id="metadata50">
    <rdf:RDF>
      <cc:Work
         rdf:about="">
        <dc:format>image/svg+xml</dc:format>
        <dc:type
           rdf:resource="http://purl.org/dc/dcmitype/StillImage" />
      </cc:Work>
    </rdf:RDF>
  </metadata>
  <defs
     id="defs48" />
  <sodipodi:namedview
     pagecolor="#ffffff"
     bordercolor="#666666"
     borderopacity="1"
     objecttolerance="10"
     gridtolerance="10"
     guidetolerance="10"
     inkscape:pageopacity="0"
     inkscape:pageshadow="2"
     inkscape:window-width="2400"
     inkscape:window-height="1271"
     id="namedview46"
     showgrid="false"
     inkscape:zoom="1.5174129"
     inkscape:cx="248.52802"
     inkscape:cy="200"
     inkscape:window-x="-9"
     inkscape:window-y="131"
     inkscape:window-maximized="1"
     inkscape:current-layer="g42"
     inkscape:document-rotation="0" />
  <g
     transform="matrix(0.1,0,0,-0.1,0,300)"
     fill="#000000"
     stroke="none"
     id="g42">
    <path
       d="M 573,2682 30,2395 V 1520 645 L 502,399 C 925,179 975,150 983,124 c 22,-66 86,-109 155,-101 57,6 92,32 119,89 l 22,46 463,235 463,236 v 886 886 l -540,284 c -297,157 -542,284 -545,284 -3,0 -249,-130 -547,-287 z m 672,49 c 6,-10 -22,-478 -30,-491 -2,-4 -11,-125 -20,-270 -8,-144 -18,-273 -21,-286 -6,-22 -12,-24 -59,-24 h -52 l -7,43 c -3,23 -11,130 -16,237 -6,107 -15,229 -21,270 -18,121 -36,519 -24,524 20,9 244,6 250,-3 z M 784,2473 c 21,-104 51,-235 66,-293 16,-58 43,-178 59,-266 17,-89 38,-181 46,-204 22,-62 19,-74 -21,-94 -20,-9 -38,-16 -39,-14 -17,20 -68,144 -110,268 -29,85 -71,193 -92,240 -22,47 -67,162 -99,257 l -59,172 25,18 c 45,33 165,103 176,103 6,0 27,-79 48,-187 z m 795,152 c 36,-19 79,-45 94,-58 l 29,-23 -115,-289 c -63,-160 -131,-344 -152,-410 -39,-126 -88,-235 -106,-235 -8,0 -66,26 -76,34 -1,1 7,31 18,67 11,35 33,134 49,220 17,86 41,192 54,237 21,70 116,468 116,486 0,13 24,5 89,-29 z m 370,-367 34,-64 -105,-140 c -58,-76 -127,-159 -153,-184 -25,-25 -80,-99 -121,-165 -41,-66 -90,-137 -110,-158 l -36,-39 -29,28 -29,27 37,51 c 20,28 63,110 95,181 32,72 85,171 117,220 32,50 94,153 137,229 l 77,140 26,-32 c 15,-17 42,-59 60,-94 z M 470,2195 c 40,-77 94,-172 120,-210 26,-39 77,-129 113,-200 36,-72 80,-150 96,-175 38,-55 38,-60 5,-91 l -26,-24 -34,40 c -19,22 -71,94 -115,160 -45,66 -103,143 -129,170 -26,28 -92,110 -146,184 l -97,135 28,54 c 15,29 41,72 57,94 35,48 25,59 128,-137 z m 1592,-256 c 3,-24 7,-72 7,-105 l 1,-62 -102,-58 c -130,-73 -172,-100 -283,-189 -49,-39 -106,-81 -126,-93 l -37,-22 -15,23 c -15,23 -14,26 35,73 27,27 80,84 116,128 37,43 94,98 127,122 33,23 103,86 155,138 52,53 99,95 105,93 5,-2 13,-24 17,-48 z M 294,1888 c 48,-50 110,-110 139,-132 28,-23 111,-102 184,-175 123,-124 131,-134 121,-157 -6,-13 -16,-24 -22,-24 -6,0 -69,45 -139,99 -71,55 -153,114 -184,131 -31,18 -95,57 -141,87 l -84,54 6,72 c 9,98 17,137 26,137 5,0 47,-41 94,-92 z m 1756,-307 c 0,-22 -41,-140 -53,-149 -6,-5 -39,-15 -72,-22 -71,-14 -226,-71 -308,-111 -61,-31 -61,-31 -70,24 -4,27 0,31 92,77 54,26 122,63 152,81 47,28 230,107 252,108 4,1 7,-3 7,-8 z M 306,1541 c 199,-87 394,-191 394,-211 0,-4 -3,-21 -6,-38 l -6,-31 -47,23 c -62,31 -254,102 -316,117 -76,18 -83,24 -105,95 -22,73 -24,84 -12,84 5,0 49,-17 98,-39 z m 1623,-253 c -33,-62 -52,-78 -91,-78 -21,0 -93,-16 -159,-36 -67,-19 -123,-33 -126,-30 -3,2 -2,18 2,35 7,31 46,61 78,61 8,0 52,12 98,26 71,22 136,36 197,43 10,1 10,-4 1,-21 z M 526,1260 c 146,-49 174,-70 174,-131 0,-21 0,-21 -32,-1 -18,11 -57,25 -86,31 -29,6 -69,18 -88,26 -20,8 -55,15 -78,15 -42,1 -46,3 -92,74 l -18,29 65,-7 c 36,-3 106,-20 155,-36 z m -353,-96 c 61,-31 211,-112 332,-179 121,-68 274,-149 340,-181 135,-67 222,-138 251,-207 14,-34 18,-79 22,-230 2,-103 1,-187 -3,-187 -15,0 -1064,555 -1068,565 -5,13 4,475 10,475 2,0 54,-25 116,-56 z M 2200,978 2199,735 1671,457 C 1381,305 1140,180 1135,180 c -4,0 -5,84 -3,187 4,151 8,196 22,230 30,70 115,140 260,211 70,35 201,104 290,154 166,95 475,257 489,258 4,0 7,-109 7,-242 z"
       id="path2"
       style="fill:#ffffff" />
    <path
       d="m 4523,2540 c -17,-10 -36,-28 -42,-38 -19,-36 -31,-112 -25,-153 9,-57 39,-87 103,-104 69,-18 83,-32 88,-92 5,-58 -19,-110 -60,-133 -25,-14 -30,-13 -64,5 -30,16 -40,29 -49,65 l -12,45 -1,-61 c -1,-74 12,-89 78,-89 63,0 97,25 128,92 21,46 25,65 20,115 -6,70 -24,94 -81,109 -77,21 -94,31 -106,60 -16,37 -5,110 21,143 43,55 129,19 129,-54 0,-47 6,-35 14,28 l 7,53 -35,14 c -47,20 -75,19 -113,-5 z"
       id="path4"
       style="fill:#ffffff" />
    <path
       d="m 2490,2540 c 0,-6 11,-15 25,-20 l 25,-10 v -199 c 0,-109 3,-213 6,-230 23,-115 191,-134 246,-28 21,39 23,59 26,254 l 4,211 24,6 c 45,12 24,26 -36,26 -63,0 -78,-13 -35,-30 l 25,-10 v -177 c 0,-98 -5,-196 -10,-218 -25,-110 -170,-115 -200,-7 -11,42 -14,381 -2,398 4,6 15,13 25,17 39,14 14,27 -53,27 -41,0 -70,-4 -70,-10 z"
       id="path6"
       style="fill:#ffffff" />
    <path
       d="m 2880,2540 c 0,-5 4,-10 9,-10 5,0 17,-7 25,-16 14,-13 16,-48 16,-232 0,-119 -3,-227 -6,-239 -3,-11 -14,-23 -25,-26 -10,-3 -19,-12 -19,-21 0,-13 11,-16 55,-16 48,0 55,2 55,20 0,13 -7,20 -20,20 -19,0 -20,7 -20,217 0,185 2,215 13,198 8,-11 64,-115 126,-232 62,-116 119,-214 127,-217 12,-5 14,32 14,259 0,254 1,265 20,275 34,18 22,30 -30,30 -52,0 -64,-12 -30,-30 19,-10 20,-21 20,-218 -1,-165 -3,-204 -13,-191 -7,10 -61,112 -122,228 l -110,210 -42,1 c -24,0 -43,-4 -43,-10 z"
       id="path8"
       style="fill:#ffffff" />
    <path
       d="m 3290,2540 c 0,-6 11,-15 25,-20 l 25,-10 -2,-242 -3,-243 -22,-3 c -15,-2 -23,-10 -23,-23 0,-17 8,-19 70,-19 63,0 70,2 70,20 0,13 -7,20 -19,20 -15,0 -19,11 -24,68 -9,86 -9,192 -1,325 6,91 9,106 25,110 11,3 19,10 19,16 0,7 -26,11 -70,11 -41,0 -70,-4 -70,-10 z"
       id="path10"
       style="fill:#ffffff" />
    <path
       d="m 3450,2541 c 0,-5 9,-15 19,-22 15,-11 35,-72 80,-254 33,-132 61,-249 63,-259 5,-33 26,-29 33,6 27,131 129,495 140,504 29,22 16,34 -35,34 -38,0 -50,-4 -50,-15 0,-8 9,-15 20,-15 12,0 20,-7 20,-17 1,-32 -94,-403 -101,-395 -7,8 -99,379 -99,400 0,6 9,12 20,12 11,0 20,7 20,15 0,12 -14,15 -65,15 -36,0 -65,-4 -65,-9 z"
       id="path12"
       style="fill:#ffffff" />
    <path
       d="m 3820,2541 c 0,-7 11,-16 25,-21 l 25,-10 v -241 c 0,-232 -1,-241 -20,-246 -11,-3 -20,-14 -20,-24 0,-18 9,-19 130,-19 h 130 l -1,78 c -1,72 -2,74 -10,33 -5,-25 -12,-48 -17,-53 -5,-5 -40,-8 -78,-6 l -69,3 -3,113 -3,112 h 59 58 l 11,-37 c 9,-34 10,-28 11,52 0,50 -3,77 -7,60 -5,-24 -13,-32 -42,-39 -20,-5 -49,-6 -64,-2 l -28,7 7,101 c 4,56 10,106 13,111 8,13 109,3 127,-12 9,-8 17,-28 17,-45 1,-19 5,-10 9,24 4,30 5,57 3,60 -10,11 -263,12 -263,1 z"
       id="path14"
       style="fill:#ffffff" />
    <path
       d="m 4110,2540 c 0,-6 11,-15 25,-20 l 25,-10 -2,-242 -3,-243 -22,-3 c -15,-2 -23,-10 -23,-23 0,-17 8,-19 70,-19 63,0 70,2 70,20 0,13 -7,20 -20,20 -20,0 -20,5 -18,248 l 3,247 41,3 c 59,4 84,-28 84,-110 0,-52 -3,-63 -29,-89 -17,-17 -40,-29 -55,-29 -14,0 -26,-2 -26,-4 0,-3 24,-53 53,-113 29,-59 61,-127 70,-150 15,-39 20,-43 52,-43 37,0 49,21 21,37 -8,4 -41,64 -74,133 l -59,125 31,20 c 82,54 89,215 10,245 -35,14 -224,13 -224,0 z"
       id="path16"
       style="fill:#ffffff" />
    <path
       d="m 4710,2540 c 0,-6 8,-14 18,-17 9,-4 20,-11 24,-17 9,-13 10,-431 2,-463 -4,-14 -14,-23 -25,-23 -12,0 -19,-7 -19,-20 0,-18 7,-20 70,-20 62,0 70,2 70,19 0,13 -8,21 -22,23 l -23,3 -3,243 -2,242 25,10 c 46,17 27,30 -45,30 -41,0 -70,-4 -70,-10 z"
       id="path18"
       style="fill:#ffffff" />
    <path
       d="m 4870,2538 c 0,-4 9,-12 20,-18 19,-10 20,-21 20,-249 0,-200 -2,-241 -15,-251 -8,-7 -15,-19 -15,-26 0,-23 164,-19 217,6 85,38 139,172 131,323 -6,113 -35,172 -98,205 -40,20 -58,22 -152,20 -60,-1 -108,-6 -108,-10 z m 256,-60 c 44,-49 57,-103 52,-223 -3,-76 -9,-110 -25,-140 -34,-64 -56,-79 -129,-83 l -64,-4 v 239 c 0,132 3,243 8,247 4,4 34,6 66,4 52,-4 63,-8 92,-40 z"
       id="path20"
       style="fill:#ffffff" />
    <path
       d="m 5360,2289 c -58,-206 -78,-263 -92,-267 -10,-2 -18,-13 -18,-23 0,-16 8,-19 55,-19 48,0 55,2 55,20 0,13 -7,20 -20,20 -25,0 -26,20 -3,101 l 16,60 76,-3 75,-3 17,-69 c 19,-76 18,-86 -12,-86 -12,0 -19,-7 -19,-20 0,-18 7,-20 65,-20 54,0 65,3 65,16 0,9 -7,22 -16,29 -14,10 -48,122 -134,443 -12,45 -25,82 -29,82 -4,0 -40,-118 -81,-261 z m 103,43 c 15,-59 27,-110 27,-115 0,-4 -27,-7 -60,-7 -41,0 -60,4 -60,13 0,20 54,217 60,217 3,0 18,-48 33,-108 z"
       id="path22"
       style="fill:#ffffff" />
    <path
       d="m 5630,2540 c 0,-4 11,-12 25,-18 l 25,-12 v -233 c 0,-190 -3,-237 -15,-253 -29,-38 -20,-44 72,-44 149,0 214,52 247,201 41,176 -9,331 -113,359 -41,11 -241,11 -241,0 z m 240,-42 c 59,-41 75,-87 75,-218 0,-101 -3,-121 -24,-163 -32,-65 -70,-88 -141,-85 l -55,3 -3,229 c -2,160 1,233 9,242 19,23 101,18 139,-8 z"
       id="path24"
       style="fill:#ffffff" />
    <path
       d="m 2500,1783 c 0,-4 10,-13 23,-18 22,-10 22,-12 25,-246 2,-201 0,-238 -13,-249 -8,-7 -15,-19 -15,-26 0,-11 22,-14 99,-14 85,0 102,3 132,23 137,92 160,421 35,510 -27,19 -46,22 -158,25 -71,2 -128,0 -128,-5 z m 248,-41 c 44,-28 65,-88 70,-193 5,-124 -13,-194 -63,-237 -37,-33 -89,-48 -130,-38 -25,6 -25,7 -25,116 v 110 h 55 c 51,0 55,-2 61,-27 11,-52 12,-48 12,42 0,51 -3,77 -7,60 -7,-33 -51,-52 -95,-41 -26,6 -26,7 -26,116 v 109 l 28,3 c 41,6 94,-3 120,-20 z"
       id="path26"
       style="fill:#ffffff" />
    <path
       d="m 3095,1050 c -10,-11 -14,-21 -9,-21 5,-1 -22,-5 -59,-9 -59,-6 -72,-11 -103,-41 -68,-65 -79,-98 -79,-239 0,-111 3,-130 24,-173 46,-94 136,-130 219,-88 79,40 121,123 129,252 7,114 -14,188 -68,242 -37,37 -38,41 -23,58 15,17 12,39 -5,39 -4,0 -16,-9 -26,-20 z m -5,-78 c 46,-33 72,-104 78,-206 5,-110 -14,-190 -58,-239 -24,-27 -35,-32 -75,-32 -41,0 -51,5 -80,37 -46,49 -65,120 -65,238 0,83 3,103 25,147 40,80 109,102 175,55 z"
       id="path28"
       style="fill:#ffffff" />
    <path
       d="m 2607,999 c -137,-72 -157,-360 -34,-487 32,-33 80,-52 132,-52 44,1 111,34 118,59 l 5,22 -33,-21 c -45,-28 -112,-27 -156,2 -21,14 -45,46 -64,82 -26,53 -29,70 -30,150 0,65 5,105 18,138 32,83 106,123 181,98 41,-13 56,-34 57,-82 0,-27 2,-30 9,-13 5,11 9,38 9,61 1,39 -1,41 -38,52 -58,18 -131,14 -174,-9 z"
       id="path30"
       style="fill:#ffffff" />
    <path
       d="m 4091,1003 c -38,-19 -86,-88 -102,-147 -16,-60 -14,-185 5,-249 31,-108 116,-165 206,-138 56,17 86,45 121,117 74,149 38,363 -70,419 -39,20 -117,19 -160,-2 z m 113,-17 c 66,-27 106,-122 106,-252 0,-88 -22,-165 -60,-207 -24,-27 -35,-32 -73,-32 -80,0 -128,68 -147,209 -19,130 14,242 80,278 42,22 51,22 94,4 z"
       id="path32"
       style="fill:#ffffff" />
    <path
       d="m 4766,858 c -93,-320 -106,-357 -127,-363 -10,-4 -19,-13 -19,-21 0,-11 15,-14 60,-14 48,0 60,3 60,16 0,9 -9,18 -20,21 -25,7 -26,41 -4,106 l 16,47 h 77 77 l 17,-67 c 21,-84 22,-81 -5,-85 -13,-2 -24,-11 -26,-20 -3,-16 5,-18 67,-18 75,0 92,13 51,41 -14,10 -39,80 -92,267 -40,138 -75,252 -78,252 -4,0 -28,-73 -54,-162 z m 78,-68 c 14,-52 26,-98 26,-102 0,-5 -29,-8 -65,-8 -36,0 -65,3 -65,6 0,3 14,55 32,115 18,66 34,105 39,97 4,-7 19,-56 33,-108 z"
       id="path34"
       style="fill:#ffffff" />
    <path
       d="m 3220,1000 c 0,-5 9,-10 19,-10 10,0 22,-7 25,-16 3,-9 6,-114 6,-234 0,-185 -2,-221 -16,-234 -8,-9 -20,-16 -25,-16 -5,0 -9,-7 -9,-15 0,-12 14,-15 70,-15 52,0 70,3 70,13 0,8 -11,19 -25,25 l -25,12 v 229 c 0,217 1,231 19,241 33,17 71,11 96,-15 21,-20 25,-34 25,-85 0,-55 -3,-65 -29,-91 -17,-17 -40,-29 -55,-29 -14,0 -26,-2 -26,-4 0,-2 24,-50 53,-107 30,-57 61,-123 70,-146 15,-39 20,-43 52,-43 42,0 43,7 9,57 -14,21 -48,81 -74,133 l -48,96 29,16 c 16,9 38,32 49,50 35,58 20,174 -25,192 -28,10 -235,7 -235,-4 z"
       id="path36"
       style="fill:#ffffff" />
    <path
       d="m 3560,1000 c 0,-5 9,-10 19,-10 10,0 22,-7 25,-16 3,-9 6,-111 6,-227 0,-169 -3,-218 -15,-241 -8,-15 -15,-32 -15,-37 0,-15 177,-11 213,5 87,36 142,153 142,301 0,76 -4,98 -25,139 -14,27 -41,59 -60,72 -32,22 -44,24 -162,24 -79,0 -128,-4 -128,-10 z m 265,-50 c 41,-39 60,-104 59,-205 0,-76 -4,-99 -27,-148 -22,-48 -33,-61 -69,-77 -50,-23 -97,-25 -121,-7 -16,11 -17,34 -15,237 l 3,225 35,5 c 52,8 108,-5 135,-30 z"
       id="path38"
       style="fill:#ffffff" />
    <path
       d="m 4350,1000 c 0,-5 9,-10 19,-10 10,0 22,-7 25,-16 3,-9 6,-114 6,-235 0,-185 -3,-224 -16,-244 -15,-23 -15,-25 0,-31 9,-3 48,-4 86,-2 106,6 156,54 167,160 7,67 -15,123 -54,140 -15,7 -30,13 -32,15 -2,1 8,12 22,23 49,39 61,147 21,191 -15,17 -31,19 -131,19 -69,0 -113,-4 -113,-10 z m 203,-41 c 25,-31 23,-109 -4,-143 -17,-21 -29,-26 -66,-26 h -45 l 4,91 c 3,64 8,93 19,100 21,14 72,2 92,-22 z m -6,-214 c 53,-37 55,-165 3,-217 -38,-38 -86,-39 -100,-2 -11,28 -14,217 -3,227 12,13 78,7 100,-8 z"
       id="path40"
       style="fill:#ffffff" />
  </g>
</svg>
